<svg width="1280" height="640" viewBox="0 0 1280 640" fill="none" xmlns="http://www.w3.org/2000/svg">
  <defs>
    <linearGradient id="bg" x1="0" y1="0" x2="1280" y2="640" gradientUnits="userSpaceOnUse">
      <stop stop-color="#052E2B"/>
      <stop offset="0.48" stop-color="#0F766E"/>
      <stop offset="1" stop-color="#14B8A6"/>
    </linearGradient>
    <linearGradient id="card" x1="154" y1="116" x2="1126" y2="524" gradientUnits="userSpaceOnUse">
      <stop stop-color="white" stop-opacity="0.20"/>
      <stop offset="1" stop-color="white" stop-opacity="0.08"/>
    </linearGradient>
    <filter id="shadow" x="120" y="84" width="1040" height="488" filterUnits="userSpaceOnUse" color-interpolation-filters="sRGB">
      <feDropShadow dx="0" dy="24" stdDeviation="30" flood-color="#022C22" flood-opacity="0.35"/>
    </filter>
  </defs>

  <rect width="1280" height="640" rx="42" fill="url(#bg)"/>
  <circle cx="1110" cy="110" r="190" fill="white" opacity="0.08"/>
  <circle cx="146" cy="560" r="230" fill="#042F2E" opacity="0.35"/>
  <path d="M0 472C147 411 290 411 430 472C585 539 737 539 913 460C1047 400 1160 383 1280 415V640H0V472Z" fill="#042F2E" opacity="0.32"/>

  <g filter="url(#shadow)">
    <rect x="154" y="116" width="972" height="408" rx="38" fill="url(#card)" stroke="white" stroke-opacity="0.20"/>
  </g>

  <g transform="translate(212 170)">
    <rect x="0" y="0" width="92" height="92" rx="24" fill="white" fill-opacity="0.16" stroke="white" stroke-opacity="0.28"/>
    <path d="M27 61V37C27 33.686 29.686 31 33 31H59C62.314 31 65 33.686 65 37V61" stroke="white" stroke-width="6" stroke-linecap="round"/>
    <path d="M33 31L46 20L59 31" stroke="white" stroke-width="6" stroke-linecap="round" stroke-linejoin="round"/>
    <path d="M38 61V47H54V61" stroke="white" stroke-width="6" stroke-linecap="round" stroke-linejoin="round"/>
  </g>

  <text x="212" y="316" fill="white" font-family="Inter, Segoe UI, Arial, sans-serif" font-size="76" font-weight="800" letter-spacing="-2">ControleMEI</text>
  <text x="216" y="368" fill="#CCFBF1" font-family="Inter, Segoe UI, Arial, sans-serif" font-size="28" font-weight="500">Gestão financeira simples para Microempreendedores Individuais</text>

  <g transform="translate(216 416)">
    <rect x="0" y="0" width="162" height="48" rx="24" fill="white" fill-opacity="0.16" stroke="white" stroke-opacity="0.25"/>
    <text x="24" y="31" fill="white" font-family="Inter, Segoe UI, Arial, sans-serif" font-size="18" font-weight="700">Receitas</text>
    <rect x="184" y="0" width="164" height="48" rx="24" fill="white" fill-opacity="0.16" stroke="white" stroke-opacity="0.25"/>
    <text x="208" y="31" fill="white" font-family="Inter, Segoe UI, Arial, sans-serif" font-size="18" font-weight="700">Despesas</text>
    <rect x="370" y="0" width="214" height="48" rx="24" fill="white" fill-opacity="0.16" stroke="white" stroke-opacity="0.25"/>
    <text x="394" y="31" fill="white" font-family="Inter, Segoe UI, Arial, sans-serif" font-size="18" font-weight="700">Limite anual MEI</text>
  </g>

  <g transform="translate(812 178)">
    <rect x="0" y="0" width="238" height="286" rx="30" fill="white" fill-opacity="0.16" stroke="white" stroke-opacity="0.24"/>
    <rect x="32" y="42" width="174" height="20" rx="10" fill="white" fill-opacity="0.78"/>
    <rect x="32" y="82" width="120" height="14" rx="7" fill="#CCFBF1" fill-opacity="0.78"/>
    <rect x="32" y="128" width="174" height="38" rx="12" fill="white" fill-opacity="0.14"/>
    <rect x="32" y="188" width="174" height="18" rx="9" fill="white" fill-opacity="0.55"/>
    <rect x="32" y="224" width="132" height="18" rx="9" fill="white" fill-opacity="0.35"/>
    <path d="M46 147L82 132L118 150L158 116L194 138" stroke="#A7F3D0" stroke-width="8" stroke-linecap="round" stroke-linejoin="round"/>
  </g>
</svg>
